<?xml version="1.0" standalone="no"?><!DOCTYPE svg PUBLIC "-//W3C//DTD SVG 1.1//EN" "http://www.w3.org/Graphics/SVG/1.1/DTD/svg11.dtd"><svg xmlns="http://www.w3.org/2000/svg" version="1.1" width="993.464" height="457.965" xmlns:xlink="http://www.w3.org/1999/xlink" xlink="http://www.w3.org/1999/xlink" style="position:relative;" viewBox="-0.635 -5.843 993.464 457.965"><defs/><g><g width="894.779" height="359.351" transform="scale(1,1) translate(52.208,47)"><g transform="scale(1,1) translate(0,0)" fill="none" stroke="#000000" stroke-opacity="1"><path d="M894.774,0 L0,0 L0,355.011 L30.207,355.011 L30.207,307.625 L97.914,307.611 L97.9,359.351 L894.779,358.905 L894.774,0 z" stroke-width="8.333" stroke-dasharray="none"/></g><g fill="#9999FF" stroke="#9999FF" stroke-opacity="1" transform="scale(1,1) translate(0,0)"><path fill="none" stroke-width="1" stroke-dasharray="none" d="M890.607,-7.167 L890.607,-28.646 L467.765,-28.646 M427.009,-28.646 L4.167,-28.646 L4.167,-7.167 M-7.167,4.167 L-28.646,4.167 L-28.646,164.852 M-28.646,190.159 L-28.646,350.845 L-7.167,350.845 M4.167,362.178 L4.167,383.657 L-1.412,383.657 M31.619,383.657 L26.04,383.657 L26.04,362.178 M37.374,350.845 L58.853,350.845 L58.853,339.806 M58.853,314.498 L58.853,303.459 L37.374,303.459 M26.043,314.793 L26.047,336.272 L47.552,336.267 M80.584,336.26 L102.089,336.256 L102.084,314.777 M90.748,303.44 L69.269,303.434 L69.267,312.788 M69.258,345.82 L69.255,355.173 L90.734,355.179 M102.074,366.515 L102.086,387.995 L475.98,387.785 M516.736,387.763 L890.63,387.553 L890.618,366.074 M901.945,354.741 L923.422,354.741 L923.422,195.97 M923.422,162.938 L923.422,4.167 L901.94,4.167"/><g><g stroke-dasharray="none"><path d="M889.607,-8.167L891.607,-8.167L891.607,-6.167L889.607,-6.167z" stroke-width="0" fill="none"/></g></g></g><g width="34.75613021850586" height="15.624999046325684" transform="rotate(360,430.009,-36.458) scale(1,1) translate(430.009,-36.458)"><text width="34.75613021850586" height="15.624999046325684" transform="scale(1,1) translate(0,0)" xml:space="preserve"><tspan xml:space="preserve" text-rendering="optimizeSpeed" font-size="13.88888888888889" font-weight="normal" font-style="normal" fill="#000" x="0" text-anchor="start" y="12.5" textLength="34.75613021850586" style="font-family: Arial, Helvetica Neue, Helvetica, sans-serif;">11.26</tspan></text></g><g width="19.30745506286621" height="15.624999046325684" transform="rotate(270,-36.458,187.159) scale(1,1) translate(-36.458,187.159)"><text width="19.30745506286621" height="15.624999046325684" transform="scale(1,1) translate(0,0)" xml:space="preserve"><tspan xml:space="preserve" text-rendering="optimizeSpeed" font-size="13.88888888888889" font-weight="normal" font-style="normal" fill="#000" x="0" text-anchor="start" y="12.5" textLength="19.30745506286621" style="font-family: Arial, Helvetica Neue, Helvetica, sans-serif;">4.4</tspan></text></g><g width="27.03179359436035" height="15.624999046325684" transform="scale(1,1) translate(1.588,375.845)"><text width="27.03179359436035" height="15.624999046325684" transform="scale(1,1) translate(0,0)" xml:space="preserve"><tspan xml:space="preserve" text-rendering="optimizeSpeed" font-size="13.88888888888889" font-weight="normal" font-style="normal" fill="#000" x="0" text-anchor="start" y="12.5" textLength="27.03179359436035" style="font-family: Arial, Helvetica Neue, Helvetica, sans-serif;">0.28</tspan></text></g><g width="19.30745506286621" height="15.624999046325684" transform="rotate(270,51.04,336.806) scale(1,1) translate(51.04,336.806)"><text width="19.30745506286621" height="15.624999046325684" transform="scale(1,1) translate(0,0)" xml:space="preserve"><tspan xml:space="preserve" text-rendering="optimizeSpeed" font-size="13.88888888888889" font-weight="normal" font-style="normal" fill="#000" x="0" text-anchor="start" y="12.5" textLength="19.30745506286621" style="font-family: Arial, Helvetica Neue, Helvetica, sans-serif;">0.6</tspan></text></g><g width="27.03179359436035" height="15.624999046325684" transform="rotate(359.988,50.55,328.454) scale(1,1) translate(50.55,328.454)"><text width="27.03179359436035" height="15.624999046325684" transform="scale(1,1) translate(0,0)" xml:space="preserve"><tspan xml:space="preserve" text-rendering="optimizeSpeed" font-size="13.88888888888889" font-weight="normal" font-style="normal" fill="#000" x="0" text-anchor="start" y="12.5" textLength="27.03179359436035" style="font-family: Arial, Helvetica Neue, Helvetica, sans-serif;">0.97</tspan></text></g><g width="27.03179359436035" height="15.624999046325684" transform="rotate(270.016,61.446,342.817) scale(1,1) translate(61.446,342.817)"><text width="27.03179359436035" height="15.624999046325684" transform="scale(1,1) translate(0,0)" xml:space="preserve"><tspan xml:space="preserve" text-rendering="optimizeSpeed" font-size="13.88888888888889" font-weight="normal" font-style="normal" fill="#000" x="0" text-anchor="start" y="12.5" textLength="27.03179359436035" style="font-family: Arial, Helvetica Neue, Helvetica, sans-serif;">0.66</tspan></text></g><g width="34.75613021850586" height="15.624999046325684" transform="rotate(359.968,478.976,379.971) scale(1,1) translate(478.976,379.971)"><text width="34.75613021850586" height="15.624999046325684" transform="scale(1,1) translate(0,0)" xml:space="preserve"><tspan xml:space="preserve" text-rendering="optimizeSpeed" font-size="13.88888888888889" font-weight="normal" font-style="normal" fill="#000" x="0" text-anchor="start" y="12.5" textLength="34.75613021850586" style="font-family: Arial, Helvetica Neue, Helvetica, sans-serif;">10.01</tspan></text></g><g width="27.03179359436035" height="15.624999046325684" transform="rotate(89.999,931.235,165.938) scale(1,1) translate(931.235,165.938)"><text width="27.03179359436035" height="15.624999046325684" transform="scale(1,1) translate(0,0)" xml:space="preserve"><tspan xml:space="preserve" text-rendering="optimizeSpeed" font-size="13.88888888888889" font-weight="normal" font-style="normal" fill="#000" x="0" text-anchor="start" y="12.5" textLength="27.03179359436035" style="font-family: Arial, Helvetica Neue, Helvetica, sans-serif;">4.45</tspan></text></g></g><g width="75.239" height="75.24" transform="scale(1,1) translate(64.529,37.542)"><g transform="scale(1.2824827448904625,1.3144452586247153) translate(0,0)" width="75.239" height="75.24"><g><g width="56.667" height="43.908" transform="scale(1,1) translate(0.5,12.833)"><g transform="scale(1,1) translate(0,0)" fill="#000000" stroke="#000000" stroke-opacity="1"><path d="M56.667,0 L56.667,0 L56.536,2.235 L56.311,4.344 L56.004,6.345 L55.627,8.25 L55.186,10.072 L54.687,11.816 L54.137,13.492 L53.538,15.102 L52.894,16.654 L52.209,18.149 L51.484,19.592 L50.721,20.984 L49.923,22.329 L49.09,23.629 L48.225,24.884 L47.328,26.097 L46.4,27.269 L45.441,28.4 L44.453,29.492 L43.437,30.546 L42.391,31.562 L41.318,32.54 L40.217,33.481 L39.088,34.385 L37.932,35.252 L36.748,36.083 L35.536,36.877 L34.296,37.633 L33.028,38.352 L31.732,39.033 L30.407,39.676 L29.053,40.279 L27.668,40.842 L26.252,41.364 L24.805,41.843 L23.324,42.278 L21.81,42.668 L20.259,43.01 L18.671,43.302 L17.044,43.541 L15.374,43.725 L13.66,43.849 L11.898,43.908 L10.083,43.898 L8.212,43.812 L6.276,43.641 L4.27,43.375 L2.182,43 L0,42.5 L0,42.5 L0,0.5" fill="none" stroke-width="1" stroke-dasharray="none"/><g><g stroke-dasharray="none"><path d="M55.667,-1L57.667,-1L57.667,1L55.667,1z" stroke-width="0" fill="none"/></g></g></g></g><g width="57" height="14" transform="scale(1,1) translate(0.667,0)"><g stroke="#BFBFBF" opacity="1" stroke-width="0" stroke-dasharray="none" width="57" height="14" transform="scale(1,1) translate(0,0)" fill="#FFFFFF" fill-opacity="1" stroke-opacity="1"><rect width="57" height="14"/></g></g></g></g><g fill="#0000FF" stroke="#9999FF" stroke-opacity="1" transform="scale(1,1) translate(0,0)" opacity="0"><path fill="none" stroke-width="0" stroke-dasharray="none" d="M20.198,-16.719 L20.198,-8.906 L12.385,-12.812 L20.198,-16.719 M55.042,-16.719 L55.042,-8.906 L62.854,-12.812 L55.042,-16.719 M91.958,20.198 L84.146,20.198 L88.052,12.385 L91.958,20.198 M91.958,55.042 L84.146,55.042 L88.052,62.855 L91.958,55.042"/><g><g stroke-dasharray="none"><path d="M20.198,-16.719L20.198,-16.719L20.198,-16.719L20.198,-16.719z" stroke-width="0" fill="none"/></g></g></g><g width="27.03179359436035" height="15.624999046325684" transform="scale(1,1) translate(24.104,-20.625)" opacity="0"><text width="27.03179359436035" height="15.624999046325684" transform="scale(1,1) translate(0,0)" xml:space="preserve"><tspan xml:space="preserve" text-rendering="optimizeSpeed" font-size="13.88888888888889" font-weight="normal" font-style="normal" fill="#000" x="0" text-anchor="start" y="12.5" textLength="27.03179359436035" style="font-family: Arial, Helvetica Neue, Helvetica, sans-serif;">0.96</tspan></text></g><g width="27.03179359436035" height="15.624999046325684" transform="rotate(270,80.239,51.136) scale(1,1) translate(80.239,51.136)" opacity="0"><text width="27.03179359436035" height="15.624999046325684" transform="scale(1,1) translate(0,0)" xml:space="preserve"><tspan xml:space="preserve" text-rendering="optimizeSpeed" font-size="13.88888888888889" font-weight="normal" font-style="normal" fill="#000" x="0" text-anchor="start" y="12.5" textLength="27.03179359436035" style="font-family: Arial, Helvetica Neue, Helvetica, sans-serif;">0.96</tspan></text></g></g><g width="150" height="75" transform="scale(1,1) translate(259.449,70.866)"><g stroke="#000000" opacity="1" stroke-width="1" stroke-dasharray="none" width="150" height="75" transform="scale(1,1) translate(0,0)" fill="none" stroke-opacity="1"><rect width="150" height="75"/></g></g><g width="150" height="75" transform="scale(1,1) translate(409.055,70.866)"><g stroke="#000000" opacity="1" stroke-width="1" stroke-dasharray="none" width="150" height="75" transform="scale(1,1) translate(0,0)" fill="none" stroke-opacity="1"><rect width="150" height="75"/></g></g><g width="150" height="75" transform="scale(1,1) translate(559.055,70.866)"><g stroke="#000000" opacity="1" stroke-width="1" stroke-dasharray="none" width="150" height="75" transform="scale(1,1) translate(0,0)" fill="none" stroke-opacity="1"><rect width="150" height="75"/></g></g><g width="150" height="75" transform="scale(1,1) translate(708.268,70.866)"><g stroke="#000000" opacity="1" stroke-width="1" stroke-dasharray="none" width="150" height="75" transform="scale(1,1) translate(0,0)" fill="none" stroke-opacity="1"><rect width="150" height="75"/></g></g><g width="55.118" height="141.732" transform="scale(1,1) translate(866.142,157.48)"><g stroke="#000000" opacity="1" stroke-width="1" stroke-dasharray="none" width="55.118" height="141.732" transform="scale(1,1) translate(0,0)" fill="none" stroke-opacity="1"><rect width="55.118" height="141.732"/></g></g><g width="78.74" height="75" transform="scale(1,1) translate(267.717,302.953)"><g stroke="#000000" opacity="1" stroke-width="1" stroke-dasharray="none" width="78.74" height="75" transform="scale(1,1) translate(0,0)" fill="none" stroke-opacity="1"><rect width="78.74" height="75"/></g></g><g width="188.976" height="75" transform="scale(1,1) translate(362.205,302.953)"><g stroke="#000000" opacity="1" stroke-width="1" stroke-dasharray="none" width="188.976" height="75" transform="scale(1,1) translate(0,0)" fill="none" stroke-opacity="1"><rect width="188.976" height="75"/></g></g><g width="150" height="75" transform="scale(1,1) translate(551.181,302.953)"><g stroke="#000000" opacity="1" stroke-width="1" stroke-dasharray="none" width="150" height="75" transform="scale(1,1) translate(0,0)" fill="none" stroke-opacity="1"><rect width="150" height="75"/></g></g><g width="150" height="75" transform="scale(1,1) translate(700.787,302.953)"><g stroke="#000000" opacity="1" stroke-width="1" stroke-dasharray="none" width="150" height="75" transform="scale(1,1) translate(0,0)" fill="none" stroke-opacity="1"><rect width="150" height="75"/></g></g><g width="102.362" height="86.614" transform="scale(1,1) translate(165.354,204.724)"><g width="102.362" height="86.614" transform="scale(1,1) translate(0,0)" stroke="#000000" stroke-width="1" stroke-dasharray="none" fill="none" stroke-opacity="1"><ellipse rx="51.181" ry="43.307" cx="51.181" cy="43.307"/></g></g><g width="31.496" height="14" transform="scale(1,1) translate(188.976,283.465)"><g stroke="#BFBFBF" opacity="1" stroke-width="0" stroke-dasharray="none" width="31.496" height="14" transform="scale(1,1) translate(0,0)" fill="#FFFFFF" fill-opacity="1" stroke-opacity="1"><rect width="31.496" height="14"/></g><g fill="#0000FF" stroke="#9999FF" stroke-opacity="1" transform="scale(1,1) translate(0,0)" opacity="0"><path fill="none" stroke-width="0" stroke-dasharray="none" d="M2.188,-16.719 L2.188,-8.906 L-5.624,-12.812 L2.188,-16.719 M29.308,-16.719 L29.308,-8.906 L37.121,-12.812 L29.308,-16.719 M48.215,-10.422 L40.402,-10.422 L44.309,-18.235 L48.215,-10.422 M48.215,24.422 L40.402,24.422 L44.309,32.235 L48.215,24.422"/><g><g stroke-dasharray="none"><path d="M2.188,-16.719L2.188,-16.719L2.188,-16.719L2.188,-16.719z" stroke-width="0" fill="none"/></g></g></g><g width="19.30745506286621" height="15.624999046325684" transform="scale(1,1) translate(6.094,-20.625)" opacity="0"><text width="19.30745506286621" height="15.624999046325684" transform="scale(1,1) translate(0,0)" xml:space="preserve"><tspan xml:space="preserve" text-rendering="optimizeSpeed" font-size="13.88888888888889" font-weight="normal" font-style="normal" fill="#000" x="0" text-anchor="start" y="12.5" textLength="19.30745506286621" style="font-family: Arial, Helvetica Neue, Helvetica, sans-serif;">0.4</tspan></text></g><g width="27.03179359436035" height="15.624999046325684" transform="rotate(270,36.496,20.516) scale(1,1) translate(36.496,20.516)" opacity="0"><text width="27.03179359436035" height="15.624999046325684" transform="scale(1,1) translate(0,0)" xml:space="preserve"><tspan xml:space="preserve" text-rendering="optimizeSpeed" font-size="13.88888888888889" font-weight="normal" font-style="normal" fill="#000" x="0" text-anchor="start" y="12.5" textLength="27.03179359436035" style="font-family: Arial, Helvetica Neue, Helvetica, sans-serif;">0.18</tspan></text></g></g><g width="23.622" height="14" transform="scale(1,1) translate(314.961,141.732)"><g stroke="#BFBFBF" opacity="1" stroke-width="0" stroke-dasharray="none" width="23.622" height="14" transform="scale(1,1) translate(0,0)" fill="#FFFFFF" fill-opacity="1" stroke-opacity="1"><rect width="23.622" height="14"/></g><g fill="#0000FF" stroke="#9999FF" stroke-opacity="1" transform="scale(1,1) translate(0,0)" opacity="0"><path fill="none" stroke-width="0" stroke-dasharray="none" d="M-1.749,-16.719 L-1.749,-8.906 L-9.561,-12.812 L-1.749,-16.719 M25.371,-16.719 L25.371,-8.906 L33.184,-12.812 L25.371,-16.719 M40.341,-10.422 L32.528,-10.422 L36.435,-18.235 L40.341,-10.422 M40.341,24.422 L32.528,24.422 L36.435,32.235 L40.341,24.422"/><g><g stroke-dasharray="none"><path d="M-1.749,-16.719L-1.749,-16.719L-1.749,-16.719L-1.749,-16.719z" stroke-width="0" fill="none"/></g></g></g><g width="19.30745506286621" height="15.624999046325684" transform="scale(1,1) translate(2.157,-20.625)" opacity="0"><text width="19.30745506286621" height="15.624999046325684" transform="scale(1,1) translate(0,0)" xml:space="preserve"><tspan xml:space="preserve" text-rendering="optimizeSpeed" font-size="13.88888888888889" font-weight="normal" font-style="normal" fill="#000" x="0" text-anchor="start" y="12.5" textLength="19.30745506286621" style="font-family: Arial, Helvetica Neue, Helvetica, sans-serif;">0.3</tspan></text></g><g width="27.03179359436035" height="15.624999046325684" transform="rotate(270,28.622,20.516) scale(1,1) translate(28.622,20.516)" opacity="0"><text width="27.03179359436035" height="15.624999046325684" transform="scale(1,1) translate(0,0)" xml:space="preserve"><tspan xml:space="preserve" text-rendering="optimizeSpeed" font-size="13.88888888888889" font-weight="normal" font-style="normal" fill="#000" x="0" text-anchor="start" y="12.5" textLength="27.03179359436035" style="font-family: Arial, Helvetica Neue, Helvetica, sans-serif;">0.18</tspan></text></g></g><g width="39.37" height="14" transform="scale(1,1) translate(472.441,135.606)"><g stroke="#BFBFBF" opacity="1" stroke-width="0" stroke-dasharray="none" width="39.37" height="14" transform="scale(1,1) translate(0,0)" fill="#FFFFFF" fill-opacity="1" stroke-opacity="1"><rect width="39.37" height="14"/></g><g fill="#0000FF" stroke="#9999FF" stroke-opacity="1" transform="scale(1,1) translate(0,0)" opacity="0"><path fill="none" stroke-width="0" stroke-dasharray="none" d="M6.125,-16.719 L6.125,-8.906 L-1.687,-12.812 L6.125,-16.719 M33.245,-16.719 L33.245,-8.906 L41.058,-12.812 L33.245,-16.719 M56.089,-10.422 L48.276,-10.422 L52.183,-18.235 L56.089,-10.422 M56.089,24.422 L48.276,24.422 L52.183,32.235 L56.089,24.422"/><g><g stroke-dasharray="none"><path d="M6.125,-16.719L6.125,-16.719L6.125,-16.719L6.125,-16.719z" stroke-width="0" fill="none"/></g></g></g><g width="19.30745506286621" height="15.624999046325684" transform="scale(1,1) translate(10.031,-20.625)" opacity="0"><text width="19.30745506286621" height="15.624999046325684" transform="scale(1,1) translate(0,0)" xml:space="preserve"><tspan xml:space="preserve" text-rendering="optimizeSpeed" font-size="13.88888888888889" font-weight="normal" font-style="normal" fill="#000" x="0" text-anchor="start" y="12.5" textLength="19.30745506286621" style="font-family: Arial, Helvetica Neue, Helvetica, sans-serif;">0.5</tspan></text></g><g width="27.03179359436035" height="15.624999046325684" transform="rotate(270,44.37,20.516) scale(1,1) translate(44.37,20.516)" opacity="0"><text width="27.03179359436035" height="15.624999046325684" transform="scale(1,1) translate(0,0)" xml:space="preserve"><tspan xml:space="preserve" text-rendering="optimizeSpeed" font-size="13.88888888888889" font-weight="normal" font-style="normal" fill="#000" x="0" text-anchor="start" y="12.5" textLength="27.03179359436035" style="font-family: Arial, Helvetica Neue, Helvetica, sans-serif;">0.18</tspan></text></g></g><g width="39.333" height="14" transform="scale(1,1) translate(614.173,135.606)"><g stroke="#BFBFBF" opacity="1" stroke-width="0" stroke-dasharray="none" width="39.333" height="14" transform="scale(1,1) translate(0,0)" fill="#FFFFFF" fill-opacity="1" stroke-opacity="1"><rect width="39.333" height="14"/></g><g fill="#0000FF" stroke="#9999FF" stroke-opacity="1" transform="scale(1,1) translate(0,0)" opacity="0"><path fill="none" stroke-width="0" stroke-dasharray="none" d="M6.107,-16.719 L6.107,-8.906 L-1.706,-12.812 L6.107,-16.719 M33.227,-16.719 L33.227,-8.906 L41.039,-12.812 L33.227,-16.719 M56.052,-10.422 L48.24,-10.422 L52.146,-18.235 L56.052,-10.422 M56.052,24.422 L48.24,24.422 L52.146,32.235 L56.052,24.422"/><g><g stroke-dasharray="none"><path d="M6.107,-16.719L6.107,-16.719L6.107,-16.719L6.107,-16.719z" stroke-width="0" fill="none"/></g></g></g><g width="19.30745506286621" height="15.624999046325684" transform="scale(1,1) translate(10.013,-20.625)" opacity="0"><text width="19.30745506286621" height="15.624999046325684" transform="scale(1,1) translate(0,0)" xml:space="preserve"><tspan xml:space="preserve" text-rendering="optimizeSpeed" font-size="13.88888888888889" font-weight="normal" font-style="normal" fill="#000" x="0" text-anchor="start" y="12.5" textLength="19.30745506286621" style="font-family: Arial, Helvetica Neue, Helvetica, sans-serif;">0.5</tspan></text></g><g width="27.03179359436035" height="15.624999046325684" transform="rotate(270,44.333,20.516) scale(1,1) translate(44.333,20.516)" opacity="0"><text width="27.03179359436035" height="15.624999046325684" transform="scale(1,1) translate(0,0)" xml:space="preserve"><tspan xml:space="preserve" text-rendering="optimizeSpeed" font-size="13.88888888888889" font-weight="normal" font-style="normal" fill="#000" x="0" text-anchor="start" y="12.5" textLength="27.03179359436035" style="font-family: Arial, Helvetica Neue, Helvetica, sans-serif;">0.18</tspan></text></g></g><g width="39.37" height="14" transform="scale(1,1) translate(771.654,135.606)"><g stroke="#BFBFBF" opacity="1" stroke-width="0" stroke-dasharray="none" width="39.37" height="14" transform="scale(1,1) translate(0,0)" fill="#FFFFFF" fill-opacity="1" stroke-opacity="1"><rect width="39.37" height="14"/></g><g fill="#0000FF" stroke="#9999FF" stroke-opacity="1" transform="scale(1,1) translate(0,0)" opacity="0"><path fill="none" stroke-width="0" stroke-dasharray="none" d="M6.125,-16.719 L6.125,-8.906 L-1.687,-12.812 L6.125,-16.719 M33.245,-16.719 L33.245,-8.906 L41.058,-12.812 L33.245,-16.719 M56.089,-10.422 L48.276,-10.422 L52.183,-18.235 L56.089,-10.422 M56.089,24.422 L48.276,24.422 L52.183,32.235 L56.089,24.422"/><g><g stroke-dasharray="none"><path d="M6.125,-16.719L6.125,-16.719L6.125,-16.719L6.125,-16.719z" stroke-width="0" fill="none"/></g></g></g><g width="19.30745506286621" height="15.624999046325684" transform="scale(1,1) translate(10.031,-20.625)" opacity="0"><text width="19.30745506286621" height="15.624999046325684" transform="scale(1,1) translate(0,0)" xml:space="preserve"><tspan xml:space="preserve" text-rendering="optimizeSpeed" font-size="13.88888888888889" font-weight="normal" font-style="normal" fill="#000" x="0" text-anchor="start" y="12.5" textLength="19.30745506286621" style="font-family: Arial, Helvetica Neue, Helvetica, sans-serif;">0.5</tspan></text></g><g width="27.03179359436035" height="15.624999046325684" transform="rotate(270,44.37,20.516) scale(1,1) translate(44.37,20.516)" opacity="0"><text width="27.03179359436035" height="15.624999046325684" transform="scale(1,1) translate(0,0)" xml:space="preserve"><tspan xml:space="preserve" text-rendering="optimizeSpeed" font-size="13.88888888888889" font-weight="normal" font-style="normal" fill="#000" x="0" text-anchor="start" y="12.5" textLength="27.03179359436035" style="font-family: Arial, Helvetica Neue, Helvetica, sans-serif;">0.18</tspan></text></g></g><g width="77.949" height="16.204" transform="scale(1,1) translate(181.102,235.765)"><g stroke="#000000" opacity="1" stroke-width="0" stroke-dasharray="none" width="77.949" height="16.204" transform="scale(1,1) translate(0,0)" fill="none" stroke-opacity="1"><rect width="77.949" height="16.204"/></g><g width="77.94867706298828" height="16.203702926635742" transform="scale(1,1) translate(0,0)"><text width="77.94867706298828" height="15.624999046325684" transform="scale(1,1) translate(0,0.2893519401550293)" xml:space="preserve"><tspan xml:space="preserve" text-rendering="optimizeSpeed" font-size="13.88888888888889" font-weight="normal" font-style="normal" fill="#000000" x="0" text-anchor="start" y="12.5" textLength="77.94867706298828" style="font-family: Arial, Helvetica Neue, Helvetica, sans-serif;">RECEPCAO</tspan></text></g></g><g width="0" height="98.44" transform="scale(1,1) translate(251.969,51.167)"><g transform="scale(1,1) translate(0,0)" fill="#000000" stroke="#000000" stroke-opacity="1"><path d="M0,0 L0,98.44" fill="none" stroke-width="11.811" stroke-dasharray="none"/><g><g stroke-dasharray="none"><path d="M-11.811,-11.811L11.811,-11.811L11.811,11.811L-11.811,11.811z" stroke-width="0" fill="none"/></g></g></g><g fill="#9999FF" stroke="#9999FF" stroke-opacity="1" transform="scale(1,1) translate(0,0)"><path fill="none" stroke-width="1" stroke-dasharray="none" d="M14.811,0 L32.812,0 L32.812,32.704 M32.812,65.736 L32.812,98.44 L14.811,98.44"/><g><g stroke-dasharray="none"><path d="M13.811,-1L15.811,-1L15.811,1L13.811,1z" stroke-width="0" fill="none"/></g></g></g><g width="27.03179359436035" height="15.624999046325684" transform="rotate(270,25,62.736) scale(1,1) translate(25,62.736)"><text width="27.03179359436035" height="15.624999046325684" transform="scale(1,1) translate(0,0)" xml:space="preserve"><tspan xml:space="preserve" text-rendering="optimizeSpeed" font-size="13.88888888888889" font-weight="normal" font-style="normal" fill="#000" x="0" text-anchor="start" y="12.5" textLength="27.03179359436035" style="font-family: Arial, Helvetica Neue, Helvetica, sans-serif;">1.25</tspan></text></g></g><g width="0" height="110.789" transform="scale(1,1) translate(251.969,291.339)"><g transform="scale(1,1) translate(0,0)" fill="#000000" stroke="#000000" stroke-opacity="1"><path d="M0,0 L0,110.789" fill="none" stroke-width="11.811" stroke-dasharray="none"/><g><g stroke-dasharray="none"><path d="M-11.811,-11.811L11.811,-11.811L11.811,11.811L-11.811,11.811z" stroke-width="0" fill="none"/></g></g></g><g fill="#9999FF" stroke="#9999FF" stroke-opacity="1" transform="scale(1,1) translate(0,0)"><path fill="none" stroke-width="1" stroke-dasharray="none" d="M14.811,0 L32.812,0 L32.812,38.879 M32.812,71.91 L32.812,110.789 L14.811,110.789"/><g><g stroke-dasharray="none"><path d="M13.811,-1L15.811,-1L15.811,1L13.811,1z" stroke-width="0" fill="none"/></g></g></g><g width="27.03179359436035" height="15.624999046325684" transform="rotate(270,25,68.91) scale(1,1) translate(25,68.91)"><text width="27.03179359436035" height="15.624999046325684" transform="scale(1,1) translate(0,0)" xml:space="preserve"><tspan xml:space="preserve" text-rendering="optimizeSpeed" font-size="13.88888888888889" font-weight="normal" font-style="normal" fill="#000" x="0" text-anchor="start" y="12.5" textLength="27.03179359436035" style="font-family: Arial, Helvetica Neue, Helvetica, sans-serif;">1.41</tspan></text></g></g><g width="59.435" height="16.204" transform="scale(1,1) translate(62.992,23.166)"><g stroke="#000000" opacity="1" stroke-width="0" stroke-dasharray="none" width="59.435" height="16.204" transform="scale(1,1) translate(0,0)" fill="none" stroke-opacity="1"><rect width="59.435" height="16.204"/></g><g width="59.43467330932617" height="16.203702926635742" transform="scale(1,1) translate(0,0)"><text width="59.43467330932617" height="15.624999046325684" transform="scale(1,1) translate(0,0.2893519401550293)" xml:space="preserve"><tspan xml:space="preserve" text-rendering="optimizeSpeed" font-size="13.88888888888889" font-weight="normal" font-style="normal" fill="#000000" x="0" text-anchor="start" y="12.5" textLength="59.43467330932617" style="font-family: Arial, Helvetica Neue, Helvetica, sans-serif;">1 ANDAR</tspan></text></g></g><g width="92.082" height="16.204" transform="scale(1,1) translate(301.619,101.907)"><g stroke="#000000" opacity="1" stroke-width="0" stroke-dasharray="none" width="92.082" height="16.204" transform="scale(1,1) translate(0,0)" fill="none" stroke-opacity="1"><rect width="92.082" height="16.204"/></g><g width="92.08171081542969" height="16.203702926635742" transform="scale(1,1) translate(0,0)"><text width="92.08171081542969" height="15.624999046325684" transform="scale(1,1) translate(0,0.2893519401550293)" xml:space="preserve"><tspan xml:space="preserve" text-rendering="optimizeSpeed" font-size="13.88888888888889" font-weight="normal" font-style="normal" fill="#000000" x="0" text-anchor="start" y="12.5" textLength="92.08171081542969" style="font-family: Arial, Helvetica Neue, Helvetica, sans-serif;">DATACENTER</tspan></text></g></g><g width="32.403" height="16.204" transform="scale(1,1) translate(456.693,94.488)"><g stroke="#000000" opacity="1" stroke-width="0" stroke-dasharray="none" width="32.403" height="16.204" transform="scale(1,1) translate(0,0)" fill="none" stroke-opacity="1"><rect width="32.403" height="16.204"/></g><g width="32.40288543701172" height="16.203702926635742" transform="scale(1,1) translate(0,0)"><text width="32.40288543701172" height="15.624999046325684" transform="scale(1,1) translate(0,0.2893519401550293)" xml:space="preserve"><tspan xml:space="preserve" text-rendering="optimizeSpeed" font-size="13.88888888888889" font-weight="normal" font-style="normal" fill="#000000" x="0" text-anchor="start" y="12.5" textLength="32.40288543701172" style="font-family: Arial, Helvetica Neue, Helvetica, sans-serif;">NTIC</tspan></text></g></g><g width="66.888" height="16.204" transform="scale(1,1) translate(594.53,330.709)"><g stroke="#000000" opacity="1" stroke-width="0" stroke-dasharray="none" width="66.888" height="16.204" transform="scale(1,1) translate(0,0)" fill="none" stroke-opacity="1"><rect width="66.888" height="16.204"/></g><g width="66.88774871826172" height="16.203702926635742" transform="scale(1,1) translate(0,0)"><text width="66.88774871826172" height="15.624999046325684" transform="scale(1,1) translate(0,0.2893519401550293)" xml:space="preserve"><tspan xml:space="preserve" text-rendering="optimizeSpeed" font-size="13.88888888888889" font-weight="normal" font-style="normal" fill="#000000" x="0" text-anchor="start" y="12.5" textLength="66.88774871826172" style="font-family: Arial, Helvetica Neue, Helvetica, sans-serif;">SUPORTE</tspan></text></g></g><g width="38.33" height="16.204" transform="scale(1,1) translate(874.016,212.143)"><g stroke="#000000" opacity="1" stroke-width="0" stroke-dasharray="none" width="38.33" height="16.204" transform="scale(1,1) translate(0,0)" fill="none" stroke-opacity="1"><rect width="38.33" height="16.204"/></g><g width="38.330078125" height="16.203702926635742" transform="scale(1,1) translate(0,0)"><text width="38.330078125" height="15.624999046325684" transform="scale(1,1) translate(0,0.2893519401550293)" xml:space="preserve"><tspan xml:space="preserve" text-rendering="optimizeSpeed" font-size="13.88888888888889" font-weight="normal" font-style="normal" fill="#000000" x="0" text-anchor="start" y="12.5" textLength="38.330078125" style="font-family: Arial, Helvetica Neue, Helvetica, sans-serif;">COPA</tspan></text></g></g><g width="55.596" height="16.204" transform="scale(1,1) translate(755.427,101.907)"><g stroke="#000000" opacity="1" stroke-width="0" stroke-dasharray="none" width="55.596" height="16.204" transform="scale(1,1) translate(0,0)" fill="none" stroke-opacity="1"><rect width="55.596" height="16.204"/></g><g width="55.59624481201172" height="16.203702926635742" transform="scale(1,1) translate(0,0)"><text width="55.59624481201172" height="15.624999046325684" transform="scale(1,1) translate(0,0.2893519401550293)" xml:space="preserve"><tspan xml:space="preserve" text-rendering="optimizeSpeed" font-size="13.88888888888889" font-weight="normal" font-style="normal" fill="#000000" x="0" text-anchor="start" y="12.5" textLength="55.59624481201172" style="font-family: Arial, Helvetica Neue, Helvetica, sans-serif;">Banheiro</tspan></text></g></g></g></svg>